<mxfile host="app.diagrams.net" modified="2023-04-07T16:23:01.306Z" agent="Mozilla/5.0 (Windows NT 10.0; Win64; x64; rv:109.0) Gecko/20100101 Firefox/111.0" version="21.1.5" etag="J-yKkpjmeVLPI4jrzhpR" type="github">
  <diagram name="Page-1" id="muKsxUkg4mIXPplaOzBH">
    <mxGraphModel>
      <root>
        <mxCell id="0" />
        <mxCell id="1" parent="0" />
      </root>
    </mxGraphModel>
  </diagram>
</mxfile>
